<?xml version="1.0" encoding="utf-8" ?>
<svg baseProfile="full" height="200mm" version="1.1" viewBox="0,0,200,200" width="200mm" xmlns="http://www.w3.org/2000/svg" xmlns:ev="http://www.w3.org/2001/xml-events" xmlns:xlink="http://www.w3.org/1999/xlink"><defs /><rect fill="#1a1a1a" height="200" width="200" x="0" y="0" /><text alignment-baseline="middle" fill="#e1ed5e" style="dominant-baseline: central; font-size:9.0px; font-family:Arial;" text-anchor="middle" x="100.0" y="100.0">2017</text><line stroke="#e1ed5e" stroke-width="0.3" x1="100.0" x2="100.0" y1="15.0" y2="10.0" /><path d="M 100.0 14.0 a86.0,86.0 0 0,1 42.46469731375804,11.215312516191453" fill="none" id="id13" stroke="none" /><text fill="#e1ed5e" style="font-size:6.75px; font-family:Arial;" text-anchor="middle"><textPath startOffset="22.20632615414155" xlink:href="#id13">January</textPath></text><path d="M 102.16513564639614 79.11191278185805 l 0.8096383724663688 -7.810964161705845 a28.85281321754332,28.85281321754332 0 0,0 0.4935662478645837,0.055457918819856296 l -0.9439713238406778 7.795870289415388" fill="#ff5e08" stroke="none" /><path d="M 102.88285421437855 79.19881850522331 l 1.0582938425860955 -7.636099732217422 a28.70908587172478,28.70908587172478 0 0,0 0.48891712625077177,0.07205367524458538 l -1.189579949265523 7.616751572811868" fill="#ff5c08" stroke="none" /><path d="M 103.2404852339499 79.25152402106235 l 1.1365448529510362 -7.2771735952938315 a28.36539135001062,28.36539135001062 0 0,0 0.48176698338046525,0.07949568019657952 l -1.2616410424703768 7.256531652157627" fill="#ff5708" stroke="none" /><path d="M 104.307194497241 79.44645832069477 l 1.918288732819523 -9.153899933751132 a30.35273840431728,30.35273840431728 0 0,0 0.510442400445204,0.11156293812573233 l -2.075573857418255 9.11952349752953" fill="#ff720a" stroke="none" /><line stroke="#e1ed5e" stroke-width="0.3" x1="143.23703022742887" x2="145.7803849466894" y1="26.81831364943548" y2="22.513508569990506" /><path d="M 143.74570117128098 25.957352633546492 a86.0,86.0 0 0,1 28.547481713284135,27.462654790039103" fill="none" id="id14" stroke="none" /><text fill="#e1ed5e" style="font-size:6.75px; font-family:Arial;" text-anchor="middle"><textPath startOffset="19.985693538727396" xlink:href="#id14">February</textPath></text><path d="M 114.68862486808459 84.99185889309783 l 18.946888423691117 -19.359033098962122 a48.087944615022224,48.087944615022224 0 0,0 0.5865909454240609,0.5840719374864214 l -19.277315169282502 19.030025310825582" fill="#afff20" stroke="none" /><path d="M 115.19652480421416 85.50635884689758 l 21.943398582667097 -20.928452316182 a51.32347041003882,51.32347041003882 0 0,0 0.6042304302496954,0.6445508942419732 l -22.300396334887257 20.54763200506197" fill="#8bff24" stroke="none" /><path d="M 115.4437574822437 85.77008943001954 l 39.20032393373167 -36.11926077786517 a74.30353079908427,74.30353079908427 0 0,0 0.8585821082419075,0.94806780826885 l -39.81624968258961 35.439140182326774" fill="#41ffce" stroke="none" /><path d="M 115.68641384162765 86.03803664274999 l 15.179984130776525 -13.511206853098487 a41.32202324666131,41.32202324666131 0 0,0 0.4683322736252711,0.5353847481731764 l -15.410308267979644 13.247906548722362" fill="#feff18" stroke="none" /><path d="M 115.9244219780498 86.31012108654704 l 42.577703941651414 -36.603125198358995 a77.14846077346789,77.14846077346789 0 0,0 0.8570436706788346,1.014469380594433 l -43.20145822581737 35.86479686813546" fill="#44ffeb" stroke="none" /><path d="M 116.15771136456269 86.58626213691792 l 24.722478556413886 -20.523998677728503 a53.131533852210445,53.131533852210445 0 0,0 0.5781255049296865,0.70871351071463 l -25.07210255341998 20.095400997405772" fill="#77ff26" stroke="none" /><path d="M 116.38621287248628 86.86637796730983 l 16.595373879780343 -13.301265504379069 a42.268053465883526,42.268053465883526 0 0,0 0.45014655613719073,0.5716404131957409 l -16.821874516511496 13.013632697230289" fill="#f3ff19" stroke="none" /><line stroke="#e1ed5e" stroke-width="0.3" x1="172.23445277983987" x2="176.4835382374775" y1="55.19839476539836" y2="52.563006222186495" /><path d="M 173.08426987136738 54.67131705675599 a86.0,86.0 0 0,1 12.851231095245387,41.99856678651699" fill="none" id="id15" stroke="none" /><text fill="#e1ed5e" style="font-size:6.75px; font-family:Arial;" text-anchor="middle"><textPath startOffset="22.20632615414155" xlink:href="#id15">March</textPath></text><path d="M 118.03404312379186 89.2402003453031 l 6.555809955574981 -3.911446879218869 a28.634006868124175,28.634006868124175 0 0,0 0.24889813975839384,0.4254476023645096 l -6.622167769803703 3.7980198645004637" fill="#ff5b08" stroke="none" /><path d="M 118.73160827565052 90.50648371742162 l 5.688772185355882 -2.8831721534428447 a27.37768066331852,27.37768066331852 0 0,0 0.20942620319624838,0.4221904462834959 l -5.737558401505538 2.784822118660399" fill="#ff4906" stroke="none" /><path d="M 118.89224826269711 90.83032412892265 l 5.796004217737325 -2.813189795361125 a27.442647104781763,27.442647104781763 0 0,0 0.2026075034708888,0.42674307366507863 l -5.8435699150499705 2.713004306055506" fill="#ff4a06" stroke="none" /><path d="M 119.04729006885535 91.15688171328212 l 6.072016335327306 -2.8190655205057955 a27.69451363322133,27.69451363322133 0 0,0 0.19702362712525076,0.434115445899043 l -6.1196422794159036 2.71412806576469" fill="#ff4e07" stroke="none" /><line stroke="#e1ed5e" stroke-width="0.3" x1="184.98032266829074" x2="189.97916517819016" y1="98.17113171792111" y2="98.06355123074" /><path d="M 185.9800911702706 98.14961562048488 a86.0,86.0 0 0,1 -9.607161424134198,41.387399972396054" fill="none" id="id16" stroke="none" /><text fill="#e1ed5e" style="font-size:6.75px; font-family:Arial;" text-anchor="middle"><textPath startOffset="21.466115282336823" xlink:href="#id16">April</textPath></text><path d="M 120.89721153311464 102.0752229133903 l 11.00025678129094 1.0923938291737034 a32.054364456283956,32.054364456283956 0 0,0 -0.05925126928759188,0.5485931659635173 l -10.979823210502296 -1.2815833170220121" fill="#ff890c" stroke="none" /><path d="M 120.8583938346157 102.4346265915055 l 3.907467294206875 0.45608611359741397 a24.933994814220373,24.933994814220373 0 0,0 -0.053428196908896775,0.4258752978357625 l -3.89903758805113 -0.5232791657205714" fill="#ff2703" stroke="none" /><path d="M 120.81339534386255 102.79330883721812 l 6.223914186275645 0.8352944923874481 a27.279715334880716,27.279715334880716 0 0,0 -0.06646631062410213,0.4648652216986918 l -6.208613824634941 -0.9423051860665493" fill="#ff4806" stroke="none" /><path d="M 120.64145759157962 103.86396538481128 l 7.84122095572963 1.4678326960764545 a28.977423073915823,28.977423073915823 0 0,0 -0.09599815549737432,0.4894925266864873 l -7.8147928672565925 -1.6025889498308867" fill="#ff5f08" stroke="none" /><path d="M 120.23288151984713 105.62410040840565 l 1.579741504735923 0.43911811736975975 a22.639636527644978,22.639636527644978 0 0,0 -0.10760011541339952,0.374570117563031 l -1.571948752436424 -0.46624571043737273" fill="#ff0500" stroke="none" /><path d="M 120.13307415673323 105.97154293290107 l 12.01407303732233 3.5634177067482877 a33.53139643850128,33.53139643850128 0 0,0 -0.16889162017507847,0.5519475867359004 l -11.950954644641119 -3.7696922660362455" fill="#ff9d0e" stroke="none" /><path d="M 119.9155931802556 106.66101706037122 l 6.158494576157073 2.059784866395801 a27.493825462729134,27.493825462729134 0 0,0 -0.15397742699349604,0.44753047807901264 l -6.122126318220347 -2.165488047564114" fill="#ff4b07" stroke="none" /><path d="M 119.67450827220406 107.3425965602758 l 4.32557341816576 1.6143194057010224 a25.616991719676907,25.616991719676907 0 0,0 -0.15773445566476166,0.41179489015206755 l -4.297144682907492 -1.688537862686234" fill="#ff3004" stroke="none" /><path d="M 119.54520255179757 107.68017299344265 l 6.526156038638586 2.564414834080858 a28.011913867262834,28.011913867262834 0 0,0 -0.18020649205306213,0.4472577346488517 l -6.481046932328131 -2.676371936572523" fill="#ff5207" stroke="none" /><path d="M 119.26925614724726 108.34839909993367 l 12.304023201136307 5.330714140338176 a34.409157325503415,34.409157325503415 0 0,0 -0.24014137013984552,0.5414553941951155 l -12.210440746265188 -5.54171787102598" fill="#ffa80f" stroke="none" /><path d="M 118.81262510543309 109.33194174019688 l 15.418912270165244 7.648501482168687 a38.21169458588517,38.21169458588517 0 0,0 -0.29736218852124646,0.5867238087105539 l -15.284971411857727 -7.912779502581935" fill="#ffd914" stroke="none" /><path d="M 118.64920377521936 109.65438752849418 l 1.856286607911275 0.9609691916468208 a23.090277914059538,23.090277914059538 0 0,0 -0.18576402561764319,0.3513955294676992 l -1.8394700740687389 -0.9927797362006544" fill="#ff0c01" stroke="none" /><line stroke="#e1ed5e" stroke-width="0.3" x1="174.80103733775053" x2="179.2010983576182" y1="140.37084112569926" y2="142.7455964860345" /><path d="M 175.68104954172406 140.8457921977663 a86.0,86.0 0 0,1 -30.038265399797805,32.042727171017184" fill="none" id="id17" stroke="none" /><text fill="#e1ed5e" style="font-size:6.75px; font-family:Arial;" text-anchor="middle"><textPath startOffset="22.206326154141568" xlink:href="#id17">May</textPath></text><path d="M 118.30583269289576 110.29060199501025 l 2.4030016887234367 1.3508445306389751 a23.756664299831396,23.756664299831396 0 0,0 -0.20345660249536687,0.3547437358587329 l -2.3793930900756903 -1.3920081123560233" fill="#ff1602" stroke="none" /><path d="M 116.71984013943494 112.70617746262583 l 10.463894556308238 7.951995956532525 a34.142576953483925,34.142576953483925 0 0,0 -0.359624060224673,0.4648625756515597 l -10.325463678865496 -8.130936526297338" fill="#ffa50f" stroke="none" /><path d="M 116.27256486870786 113.27417163493432 l 2.169500674919675 1.7697470898622012 a23.79977462317106,23.79977462317106 0 0,0 -0.26168872200582544,0.31522092355544695 l -2.138715953020306 -1.8068292705314186" fill="#ff1602" stroke="none" /><path d="M 115.80600337817218 113.82643327865902 l 5.194069255471946 4.543555400266012 a27.90088770419613,27.90088770419613 0 0,0 -0.3193205450790015,0.3587600174901147 l -5.1150898607446065 -4.6322895874969925" fill="#ff5107" stroke="none" /><path d="M 115.56566222782051 114.09645910891815 l 9.392393819228353 8.505869745199176 a33.67149879760771,33.67149879760771 0 0,0 -0.3927597418400827,0.4262631287763035 l -9.24458766939255 -8.666284128776814" fill="#ff9f0e" stroke="none" /><path d="M 115.07121518719521 114.62390073753431 l 14.115452647651766 13.69650527981356 a40.6682551419301,40.6682551419301 0 0,0 -0.4918135550441224,0.49820453468958253 l -13.877598467552108 -13.937450308483806" fill="#fff817" stroke="none" /><path d="M 114.81725581225074 114.88116024355365 l 1.320416911001319 1.326111655888596 a22.871382628630997,22.871382628630997 0 0,0 -0.28137251387325,0.2753822258889439 l -1.2973944447522747 -1.348643984700112" fill="#ff0901" stroke="none" /><path d="M 114.29624159901734 115.38237550388516 l 2.4993555950268322 2.689240106510348 a24.671347265086172,24.671347265086172 0 0,0 -0.3135616047767121,0.28643109148963486 l -2.4526944407832563 -2.731863964586566" fill="#ff2303" stroke="none" /><path d="M 114.0293411484842 115.62618273729858 l 14.463040641043472 16.109246585563255 a42.649188671609764,42.649188671609764 0 0,0 -0.5504947015128361,0.48574756916364353 l -14.183603586624049 -16.355817296499186" fill="#eeff19" stroke="none" /><path d="M 113.48314897796784 116.09983520530334 l 8.167611098836495 9.752706354216459 a33.72105154039599,33.72105154039599 0 0,0 -0.4482167991337418,0.3688519112427439 l -7.998524171158062 -9.89185338431638" fill="#ff9f0e" stroke="none" /><path d="M 111.1453310114006 117.79835938074945 l 6.645111236476654 10.61180487065722 a33.52069910021212,33.52069910021212 0 0,0 -0.4916701216988417,0.3020239461778924 l -6.461461914845504 -10.724617283663491" fill="#ff9d0e" stroke="none" /><line stroke="#e1ed5e" stroke-width="0.3" x1="143.8653032363475" x2="146.44561519142675" y1="172.8068346515853" y2="177.08958963109032" /><path d="M 144.38136562736335 173.6633856474863 a86.0,86.0 0 0,1 -40.68145358897372,12.25698825130547" fill="none" id="id18" stroke="none" /><text fill="#e1ed5e" style="font-size:6.75px; font-family:Arial;" text-anchor="middle"><textPath startOffset="21.466115282336833" xlink:href="#id18">June</textPath></text><path d="M 106.57524785965236 119.94407469862006 l 2.064515480591637 6.262098682855436 a27.593641185522785,27.593641185522785 0 0,0 -0.4523762700664292,0.14483659610350744 l -1.9564178654342672 -6.29670812561865" fill="#ff4c07" stroke="none" /><path d="M 105.18746579009965 120.34920634021253 l 3.1504103686362366 12.35831776858662 a33.753552585855225,33.753552585855225 0 0,0 -0.5642416077862747,0.13867685926375284 l -2.9372154761067506 -12.410715886164402" fill="#ffa00e" stroke="none" /><path d="M 104.83641907484287 120.43548508189849 l 1.4477006989277361 6.117018723600368 a27.2859967688946,27.2859967688946 0 0,0 -0.457988764988896,0.10423675182807017 l -1.342191784545978 -6.141032209006123" fill="#ff4806" stroke="none" /><line stroke="#e1ed5e" stroke-width="0.3" x1="102.19456741930631" x2="102.32365962044197" y1="184.97166512339345" y2="189.96999836594603" /><path d="M 102.22038585953345 185.97133177190398 a86.0,86.0 0 0,1 -42.740103519485714,-10.115201625700543" fill="none" id="id19" stroke="none" /><text fill="#e1ed5e" style="font-size:6.75px; font-family:Arial;" text-anchor="middle"><textPath startOffset="22.20632615414155" xlink:href="#id19">July</textPath></text><path d="M 99.45781275523022 120.99299961872073 l -0.3405182468026647 13.184558460668212 a34.18895501846842,34.18895501846842 0 0,0 -0.5881796974135104,-0.020258098042667382 l 0.5674182958908182 -13.176743564199452" fill="#ffa60f" stroke="none" /><path d="M 99.09653310690486 120.98055641714683 l -0.5633460293283777 13.082176271239504 a34.09430008593594,34.09430008593594 0 0,0 -0.5861166252435184,-0.030295534662430536 l 0.788450722985385 -13.070540929814872" fill="#ffa40f" stroke="none" /><path d="M 98.01472825383883 120.90594882070398 l -0.6561976939446407 6.910104590163691 a27.94119160235039,27.94119160235039 0 0,0 -0.47841627200965386,-0.049589802719913985 l 0.7750465625598878 -6.897785418988016" fill="#ff5107" stroke="none" /><path d="M 97.2962882734958 120.8252237178851 l -0.9688396452853419 7.46244585250623 a28.525074641481243,28.525074641481243 0 0,0 -0.48638160301790423,-0.06740805825901829 l 1.0971498394900772 -7.444663228754607" fill="#ff5908" stroke="none" /><path d="M 94.11515582081647 120.15858648285463 l -1.837850070813167 6.2955718905964035 a27.55834722414539,27.55834722414539 0 0,0 -0.4542206493972335,-0.13685295563458352 l 1.9459456946506464 -6.263003565856095" fill="#ff4c07" stroke="none" /><path d="M 93.08242187328487 119.8279376855182 l -4.958787368300235 14.213432090441911 a36.05361165812437,36.05361165812437 0 0,0 -0.5842066102815129,-0.20947570537134277 l 5.202713539211475 -14.12596884403061" fill="#ffbe11" stroke="none" /><path d="M 92.7421414339146 119.70592522655815 l -14.272692679354856 38.75201096302285 a62.29682929714523,62.29682929714523 0 0,0 -1.0030672922656216,-0.3792742208784941 l 14.93763019238076 -38.50058849203772" fill="#32ff48" stroke="none" /><path d="M 92.40401165467489 119.57807347666478 l -13.769556991546606 35.48997000338135 a59.06755403994796,59.06755403994796 0 0,0 -0.9447403091322437,-0.37593166622163027 l 14.378418376720708 -35.24769149275365" fill="#3bff2e" stroke="none" /><path d="M 92.06813273071674 119.44442032107085 l -21.288468042789024 52.18719710788592 a77.36224280124227,77.36224280124227 0 0,0 -1.2286912348333947,-0.5135930358101706 l 22.18363073711988 -51.81301902905578" fill="#45ffed" stroke="none" /><path d="M 91.7346041902142 119.30500536409082 l -13.170164100517978 30.760788044226164 a54.46160939847903,54.46160939847903 0 0,0 -0.8586244236524735,-0.3763957146833959 l 13.697709198828194 -30.529527776248315" fill="#69ff28" stroke="none" /><path d="M 91.40352486487194 119.15986991738527 l -17.55678641028095 39.130659776321195 a63.88880137735755,63.88880137735755 0 0,0 -0.9995007602152634,-0.4588217765982722 l 18.227755166263634 -38.82265092938885" fill="#34ff5b" stroke="none" /><path d="M 91.07499286063937 119.00905698771935 l -24.199346375879326 51.541331804201064 a77.9395929838854,77.9395929838854 0 0,0 -1.2095012387935937,-0.5806340958901707 l 25.08296028267316 -51.117143431811336" fill="#45fff3" stroke="none" /><path d="M 90.7491055286396 118.85261126421891 l -18.739427010366327 38.18951062887734 a63.53945047541144,63.53945047541144 0 0,0 -0.9777392918625701,-0.4902587784746375 l 19.394020209911655 -37.8612840094934" fill="#33ff57" stroke="none" /><path d="M 90.42595943632237 118.69057910512821 l -28.72212169103289 56.07173731538464 a84.0,84.0 0 0,0 -1.2812363898940176,-0.6702823242211329 l 29.683048983453403 -55.569025572218784" fill="#4dd2ff" stroke="none" /><line stroke="#e1ed5e" stroke-width="0.3" x1="58.666819895761336" x2="56.23545636021788" y1="174.27360380694188" y2="178.64263932499728" /><path d="M 58.180547188652646 175.14741091055294 a86.0,86.0 0 0,1 -31.652253787137756,-30.449443065178592" fill="none" id="id20" stroke="none" /><text fill="#e1ed5e" style="font-size:6.75px; font-family:Arial;" text-anchor="middle"><textPath startOffset="22.20632615414155" xlink:href="#id20">August</textPath></text><path d="M 83.72743513129214 113.27417163493432 l -9.697135011461098 7.910334698176365 a33.51430471371373,33.51430471371373 0 0,0 -0.360808761224096,-0.45016440651026557 l 9.831861684740057 -7.742242458087841" fill="#ff9d0e" stroke="none" /><path d="M 83.50135304334701 112.99209946851258 l -11.820199950679461 9.30798833991712 a36.04512458606029,36.04512458606029 0 0,0 -0.3796636109981871,-0.4907663963849557 l 11.978670378895718 -9.10314394941891" fill="#ffbe11" stroke="none" /><path d="M 83.06392112726016 112.41649034213515 l -5.089948588582354 3.731636937155639 a27.311314511665206,27.311314511665206 0 0,0 -0.27470007245947664,-0.3815343746989157 l 5.153428453417439 -3.643468957005585" fill="#ff4806" stroke="none" /><path d="M 82.44556493220864 111.52570212397912 l -14.687703480689434 9.6434943391805 a38.570589534971866,38.570589534971866 0 0,0 -0.3596158975060814,-0.5581318589511324 l 14.85152424157256 -9.389240880307918" fill="#ffde14" stroke="none" /><line stroke="#e1ed5e" stroke-width="0.3" x1="26.63291911575756" x2="22.317208475507996" y1="142.92168965132927" y2="145.44649492493687" /><path d="M 25.769776987707644 143.4266507060508 a86.0,86.0 0 0,1 -11.730757126820373,-40.83630448921669" fill="none" id="id21" stroke="none" /><text fill="#e1ed5e" style="font-size:6.75px; font-family:Arial;" text-anchor="middle"><textPath startOffset="21.46611528233685" xlink:href="#id21">September</textPath></text><path d="M 81.69416730710424 110.29060199501025 l -13.118122257496196 7.374336766781867 a36.04878647308573,36.04878647308573 0 0,0 -0.2994170843595816,-0.5435289796838438 l 13.243115751307293 -7.147437268700201" fill="#ffbe11" stroke="none" /><path d="M 81.51974371655577 109.97397251340807 l -15.553977859331216 8.394631831058899 a38.67472972431525,38.67472972431525 0 0,0 -0.3111427896192145,-0.5885649007377827 l 15.696173157175316 -8.125651915234991" fill="#ffdf14" stroke="none" /><path d="M 80.58989483394504 108.01547362559985 l -3.9372963367460017 1.625920863043567 a25.259802941009575,25.259802941009575 0 0,0 -0.16250158770018766,-0.4033156140136512 l 3.964700538703577 -1.5579058811871107" fill="#ff2b04" stroke="none" /><path d="M 80.0844068197444 106.66101706037122 l -1.7963044448471364 0.6007962928570864 a22.894113471809014,22.894113471809014 0 0,0 -0.12178332766258793,-0.3748105426495681 l 1.8063800235259737 -0.5697868502297149" fill="#ff0901" stroke="none" /><path d="M 79.50377843672027 104.57218783832718 l -4.928210024158314 1.0993588192639117 a26.04934093280577,26.04934093280577 0 0,0 -0.09385944867978675,-0.438480096812557 l 4.946403511562542 -1.014364903035191" fill="#ff3605" stroke="none" /><path d="M 79.4281124754447 104.21870165774334 l -1.2509570155366339 0.25653525613100703 a22.276990130094404,22.276990130094404 0 0,0 -0.07380055697386118,-0.3763074500425545 l 1.2551875054861616 -0.23496407902049768" fill="#ff0000" stroke="none" /><path d="M 79.35854240842038 103.8639653848113 l -9.946122931249487 1.8618585702544292 a31.11888722632863,31.11888722632863 0 0,0 -0.09402876690267274,-0.5273632600903844 l 9.976698140491347 -1.690376559430831" fill="#ff7d0b" stroke="none" /><path d="M 79.29508885075956 103.50808413554451 l -6.21512003397777 1.0530431082048917 a27.303698662252952,27.303698662252952 0 0,0 -0.07452381460801484,-0.46405986470265215 l 6.232325602947076 -0.9459040138090259" fill="#ff4806" stroke="none" /><path d="M 79.18660465613746 102.79330883721812 l -6.264436055157938 0.8407328215297879 a27.32060050678416,27.32060050678416 0 0,0 -0.058542180441670644,-0.4666387782852336 l 6.277979744846457 -0.7327762889571457" fill="#ff4806" stroke="none" /><path d="M 79.1416061653843 102.43462659150553 l -4.682456318910762 0.5465441278927357 a25.714245184782115,25.714245184782115 0 0,0 -0.04753180079575717,-0.4400854428270106 l 4.6911704212075716 -0.46586236318094293" fill="#ff3204" stroke="none" /><path d="M 79.07016306316243 101.71520430193888 l -1.6955541570414279 0.13895100057894824 a22.70123816087647,22.70123816087647 0 0,0 -0.028564039751946248,-0.38973362818004 l 1.6976947554577095 -0.10974423590214759" fill="#ff0601" stroke="none" /><path d="M 79.0095281055655 100.63252640178507 l -4.132501303153657 0.12452870010745126 a25.13437714991232,25.13437714991232 0 0,0 -0.009309219520161857,-0.4325628512261995 l 4.134032585358827 -0.05337603309112296" fill="#ff2904" stroke="none" /><line stroke="#e1ed5e" stroke-width="0.3" x1="15.007084014347285" x2="10.007500721073583" y1="101.09737516637583" y2="101.16192664675087" /><path d="M 14.007167355692545 101.11028546245083 a86.0,86.0 0 0,1 10.666146001902534,-42.60595125391555" fill="none" id="id22" stroke="none" /><text fill="#e1ed5e" style="font-size:6.75px; font-family:Arial;" text-anchor="middle"><textPath startOffset="22.20632615414155" xlink:href="#id22">October</textPath></text><path d="M 79.00486145842228 99.54816195383935 l -13.771397967631207 -0.29637535081145566 a34.77458675719332,34.77458675719332 0 0,0 0.018030301228142847,-0.5983379193492097 l 13.764255971947419 0.5333834175856598" fill="#ffad10" stroke="none" /><path d="M 79.21141760316559 97.0276538004421 l -6.523320625516554 -0.9327027163095241 a27.589662080888584,27.589662080888584 0 0,0 0.07126555094711254,-0.4695509388815153 l 6.50629918113014 1.0448527675831314" fill="#ff4c07" stroke="none" /><path d="M 79.26566170972629 96.67025291283419 l -6.529071850041977 -1.0485098521215732 a27.612726527916195,27.612726527916195 0 0,0 0.0794038644462864,-0.46864610275704166 l 6.510056124075468 1.160741743194443" fill="#ff4c07" stroke="none" /><path d="M 79.32604984820605 96.31383870115002 l -1.3124415703197294 -0.2340080772176327 a22.333140148561437,22.333140148561437 0 0,0 0.07073679284767474,-0.37787877589926927 l 1.3082190535621931 0.25656493057947466" fill="#ff0100" stroke="none" /><path d="M 79.54389044137918 95.25157060432595 l -8.986476136730198 -2.0860099193783355 a30.225410058082304,30.225410058082304 0 0,0 0.12200587483772575,-0.5057931177886063 l 8.94923746163166 2.2403882688263383" fill="#ff710a" stroke="none" /><path d="M 79.71946130924805 94.55025226153421 l -12.176960198611566 -3.272169557016376 a33.608943385091195,33.608943385091195 0 0,0 0.15494239747442978,-0.5574102421457126 l 12.118831030570776 3.4812911025810314" fill="#ff9e0e" stroke="none" /><path d="M 79.81627453868168 94.20196356495316 l -2.703159702565395 -0.7765176193692074 a23.812481464963682,23.812481464963682 0 0,0 0.11656107951119275,-0.3929860144951967 l 2.6893927259424957 0.8229330206109433" fill="#ff1602" stroke="none" /><path d="M 80.02781315780177 93.51064311812611 l -6.3156449308340745 -2.0520774324415005 a27.640662066473933,27.640662066473933 0 0,0 0.15092157688008645,-0.45123630521056823 l 6.279386060182215 2.160486840574391" fill="#ff4d07" stroke="none" /><path d="M 80.52162464483688 92.15188598940014 l -11.965191927950126 -4.8209457255566495 a33.899896726774436,33.899896726774436 0 0,0 0.22273574119487505,-0.5393722645438997 l 11.880434499869052 5.026192560553861" fill="#ffa20e" stroke="none" /><path d="M 81.10775173730289 90.83032412892265 l -14.227505978474005 -6.905563406871968 a36.81482634535842,36.81482634535842 0 0,0 0.28161586796384447,-0.5677204053819116 l 14.106530097556748 7.149443400752841" fill="#ffc812" stroke="none" /><path d="M 81.26839172434947 90.50648371742162 l -1.7622418583651271 -0.8931358978917954 a22.975648779382905,22.975648779382905 0 0,0 0.18182552829332282,-0.3512290467594257 l 1.7466068969116904 0.9233376669115565" fill="#ff0a01" stroke="none" /><path d="M 81.6062741919709 89.86733742301443 l -11.18712462650342 -6.162718756934157 a33.772269175287036,33.772269175287036 0 0,0 0.2848809247912992,-0.5067713773359104 l 11.07938606041969 6.354373644204852" fill="#ffa00e" stroke="none" /><line stroke="#e1ed5e" stroke-width="0.3" x1="26.266209847984243" x2="21.928928074336255" y1="57.711370442889674" y2="55.22380399835377" /><path d="M 25.398753493254645 57.213857153982495 a86.0,86.0 0 0,1 29.58750427330803,-30.492523968695096" fill="none" id="id23" stroke="none" /><text fill="#e1ed5e" style="font-size:6.75px; font-family:Arial;" text-anchor="middle"><textPath startOffset="21.46611528233685" xlink:href="#id23">November</textPath></text><path d="M 82.34701348167596 88.62581576622439 l -1.150789035789496 -0.7414771712249286 a22.368979108803725,22.368979108803725 0 0,0 0.21133717708547856,-0.3218810197114967 l 1.1378552233460972 0.7611762549140924" fill="#ff0100" stroke="none" /><path d="M 82.54541684631803 88.32363383020206 l -11.513599285627652 -7.702103224559306 a34.85226922174748,34.85226922174748 0 0,0 0.33786044426067413,-0.49576851216343115 l 11.379314375698238 7.899149759993153" fill="#ffae10" stroke="none" /><path d="M 82.95767976084542 87.72973835380427 l -10.546056226463596 -7.593031196356586 a33.995130806597366,33.995130806597366 0 0,0 0.34600144980282954,-0.4719455886868134 l 10.413792164147134 7.7734392287149" fill="#ffa30f" stroke="none" /><path d="M 84.31358615837235 86.03803664274999 l -10.515045133576946 -9.359097390713622 a35.076891635940896,35.076891635940896 0 0,0 0.40531575347061527,-0.44755977833800886 l 10.352385739490286 9.538709956321187" fill="#ffb110" stroke="none" /><path d="M 86.37877921826538 84.01681056812374 l -8.327165056295732 -9.771125412176605 a33.83809057824707,33.83809057824707 0 0,0 0.44657008416457683,-0.3739896028197375 l 8.157737435172045 9.913016172390156" fill="#ffa10e" stroke="none" /><line stroke="#e1ed5e" stroke-width="0.3" x1="56.762969772571076" x2="54.21961505331055" y1="26.818313649435495" y2="22.513508569990535" /><path d="M 56.25429882871897 25.957352633546506 a86.0,86.0 0 0,1 42.265352541879196,-11.944610805530505" fill="none" id="id24" stroke="none" /><text fill="#e1ed5e" style="font-size:6.75px; font-family:Arial;" text-anchor="middle"><textPath startOffset="22.20632615414155" xlink:href="#id24">December</textPath></text><path d="M 89.94658935756843 81.56283822128135 l -3.0418892128433557 -5.578584773352831 a27.35403006419523,27.35403006419523 0 0,0 0.4153318087324908,-0.22185586837348398 l 2.9454123575825593 5.630119368228064" fill="#ff4906" stroke="none" /><path d="M 90.58718382345135 81.22770947309562 l -5.652481090666891 -11.272929933147724 a33.61068958296907,33.61068958296907 0 0,0 0.5194111669174679,-0.2548728038284695 l 5.4575986567389965 11.368557897111023" fill="#ff9e0e" stroke="none" /><path d="M 92.91201910852362 80.23233633223022 l -4.229261731830078 -11.79498432033338 a33.53029568339202,33.53029568339202 0 0,0 0.5449758726581352,-0.1901313810886599 l 4.025603855108657 11.86603655459425" fill="#ff9d0e" stroke="none" /><path d="M 95.33964822691252 79.52364482259891 l -2.9347070897298453 -12.894328075825568 a34.22407661160257,34.22407661160257 0 0,0 0.5755467459292744,-0.12579222640707685 l 2.71231761964705 12.942933800328513" fill="#ffa60f" stroke="none" /><path d="M 97.11714578562143 79.19881850522333 l -3.6509452860982408 -26.34332847802345 a47.595119040589466,47.595119040589466 0 0,0 0.8124832938555496,-0.10548364996912186 l 3.1969472637348333 26.40227045115671" fill="#b4ff20" stroke="none" /><path d="M 99.63851952072746 79.00311137660856 l -0.09832648440733184 -5.7113740857740725 a26.712220412868145,26.712220412868145 0 0,0 0.4598069636798662,-0.003957703702631747 l 1.3990904889286294e-15 5.712220412868145" fill="#ff4006" stroke="none" /></svg>