<?xml version="1.0" encoding="utf-8" ?>
<svg baseProfile="full" height="200mm" version="1.1" viewBox="0,0,200,200" width="200mm" xmlns="http://www.w3.org/2000/svg" xmlns:ev="http://www.w3.org/2001/xml-events" xmlns:xlink="http://www.w3.org/1999/xlink"><defs /><rect fill="#1a1a1a" height="200" width="200" x="0" y="0" /><text alignment-baseline="middle" fill="#e1ed5e" style="dominant-baseline: central; font-size:9.0px; font-family:Arial;" text-anchor="middle" x="100.0" y="100.0">2019</text><line stroke="#e1ed5e" stroke-width="0.3" x1="100.0" x2="100.0" y1="15.0" y2="10.0" /><path d="M 100.0 14.0 a86.0,86.0 0 0,1 42.46469731375804,11.215312516191453" fill="none" id="id37" stroke="none" /><text fill="#e1ed5e" style="font-size:6.75px; font-family:Arial;" text-anchor="middle"><textPath startOffset="22.20632615414155" xlink:href="#id37">January</textPath></text><path d="M 102.88285421437855 79.19881850522331 l 2.035423108027547 -14.686557952730277 a35.82693264730091,35.82693264730091 0 0,0 0.6101344024175287,0.08991795076696268 l -2.2879264908737316 14.649345517802347" fill="#ffb811" stroke="none" /><path d="M 103.2404852339499 79.25152402106235 l 1.1180385040172645 -7.158679447476912 a28.245460753340225,28.245460753340225 0 0,0 0.4797300433270049,0.07915956763458269 l -1.2410977534831444 7.1383736169027046" fill="#ff5207" stroke="none" /><line stroke="#e1ed5e" stroke-width="0.3" x1="143.23703022742887" x2="145.7803849466894" y1="26.81831364943548" y2="22.513508569990506" /><path d="M 143.74570117128098 25.957352633546492 a86.0,86.0 0 0,1 28.547481713284135,27.462654790039103" fill="none" id="id38" stroke="none" /><text fill="#e1ed5e" style="font-size:6.75px; font-family:Arial;" text-anchor="middle"><textPath startOffset="19.985693538727396" xlink:href="#id38">February</textPath></text><path d="M 114.68862486808459 84.99185889309783 l 5.100345580070548 -5.211291516197963 a28.29185054035956,28.29185054035956 0 0,0 0.3451123454979481,0.3436303234100377 l -5.189293725735819 5.122725342137806" fill="#ff5307" stroke="none" /><path d="M 116.60985879189232 87.15038557335679 l 49.829576375676965 -38.54884327992963 a84.0,84.0 0 0,0 0.874896239103546,1.1512608964758657 l -50.48574855500462 37.68539760757273" fill="#4dd2ff" stroke="none" /><line stroke="#e1ed5e" stroke-width="0.3" x1="172.23445277983987" x2="176.4835382374775" y1="55.19839476539836" y2="52.563006222186495" /><path d="M 173.08426987136738 54.67131705675599 a86.0,86.0 0 0,1 12.851231095245387,41.99856678651699" fill="none" id="id39" stroke="none" /><text fill="#e1ed5e" style="font-size:6.75px; font-family:Arial;" text-anchor="middle"><textPath startOffset="22.20632615414155" xlink:href="#id39">March</textPath></text><path d="M 118.21658344932153 89.55222093294921 l 2.559492705165086 -1.4679489368402365 a23.950572315494686,23.950572315494686 0 0,0 0.20203147011251826,0.35939144205293244 l -2.584381816570037 1.4236739848525102" fill="#ff1502" stroke="none" /><path d="M 118.3937258080291 89.86733742301442 l 6.995461124690178 -3.853631824606436 a28.98667356204516,28.98667356204516 0 0,0 0.23698938481911458,0.4391053376200391 l -7.060758608727757 3.7326455036539383" fill="#ff5c08" stroke="none" /><path d="M 118.56541770881063 90.18545643968196 l 6.530588212552811 -3.4523727659616044 a28.386979092774467,28.386979092774467 0 0,0 0.2246499117285769,0.4339521248288521 l -6.5890475574415035 3.3394479188724078" fill="#ff5407" stroke="none" /><path d="M 118.73160827565052 90.50648371742162 l 6.555142332989648 -3.3222641407546165 a28.348967956570295,28.348967956570295 0 0,0 0.21685608787274765,0.4371686404136099 l -6.611358433815805 3.2089359118420564" fill="#ff5407" stroke="none" /><path d="M 119.47837535516314 92.15188598940014 l 6.837802722288353 -2.7550478090712196 a28.371962730453955,28.371962730453955 0 0,0 0.1786169750229531,0.45456071874861675 l -6.884213247193006 2.6369380854268183" fill="#ff5407" stroke="none" /><path d="M 119.85752413597 93.16781622104841 l 11.812136878129257 -4.064086208377073 a33.491732239236555,33.491732239236555 0 0,0 0.1828691740391485,0.546755554349246 l -11.880343345940176 3.8601575511055124" fill="#ff9a0e" stroke="none" /><path d="M 120.28053869075195 94.5502522615342 l 7.289748651037049 -1.9588873762554015 a28.548355791041466,28.548355791041466 0 0,0 0.12344263928086913,0.475674844570885 l -7.32238762218822 1.8331161061356662" fill="#ff5608" stroke="none" /><path d="M 120.67395015179393 96.31383870115 l 8.923663378943763 -1.591087448209463 a30.064398897254673,30.064398897254673 0 0,0 0.08645395637707949,0.5102561444153914 l -8.949729196841066 1.437245515478234" fill="#ff6b09" stroke="none" /><path d="M 120.73433829027371 96.67025291283417 l 26.31289569717644 -4.2256129217140765 a47.650033480929125,47.650033480929125 0 0,0 0.12308254732192607,0.810960202887194 l -26.381734137937663 3.7720536064348003" fill="#b5ff1f" stroke="none" /><path d="M 120.78858239683441 97.02765380044208 l 22.98809212778094 -3.286831538907703 a44.22187850369781,44.22187850369781 0 0,0 0.10125546893505043,0.7544708546342777 l -23.041263595773827 2.890642342208761" fill="#ddff1b" stroke="none" /><path d="M 120.87857604477298 97.74499172005257 l 4.643527516826161 -0.501528120315859 a25.67053297333284,25.67053297333284 0 0,0 0.04366786776555113,0.4397294690650695 l -4.651472510273941 0.42152312054635466" fill="#ff2e04" stroke="none" /><path d="M 120.91429891909075 98.10471618934814 l 23.338835167492967 -2.1149987682372124 a44.434471335301154,44.434471335301154 0 0,0 0.062473842970601476,0.7623391246828256 l -23.371783494283065 1.712945726346618" fill="#dbff1b" stroke="none" /><path d="M 120.96714384426684 98.82574320788733 l 23.15793917734023 -1.2969514385126633 a44.19422837637091,44.19422837637091 0 0,0 0.0360001802106918,0.7599069056225806 l -23.176832965784417 0.8981334262670829" fill="#deff1b" stroke="none" /><path d="M 120.98425023603335 99.18683210126433 l 32.77026196309374 -1.269891693141739 a53.794857737793265,53.794857737793265 0 0,0 0.027892135607819023,0.9256041912233328 l -32.787265793157204 0.7056173544934072" fill="#72ff27" stroke="none" /><line stroke="#e1ed5e" stroke-width="0.3" x1="184.98032266829074" x2="189.97916517819016" y1="98.17113171792111" y2="98.06355123074" /><path d="M 185.9800911702706 98.14961562048488 a86.0,86.0 0 0,1 -9.607161424134198,41.387399972396054" fill="none" id="id40" stroke="none" /><text fill="#e1ed5e" style="font-size:6.75px; font-family:Arial;" text-anchor="middle"><textPath startOffset="21.466115282336823" xlink:href="#id40">April</textPath></text><path d="M 120.99513854157772 99.54816195383933 l 7.372585591557306 -0.1586660008098814 a28.374292725723016,28.374292725723016 0 0,0 0.006305839151943082,0.488394191596554 l -7.374224437826965 0.03173555115286468" fill="#ff5407" stroke="none" /><path d="M 120.9904718944345 100.63252640178507 l 4.346924807115717 0.13099013309006124 a25.348897986120733,25.348897986120733 0 0,0 -0.01689669077991052,0.4360285102717926 l -4.344025983484603 -0.20579589037586007" fill="#ff2904" stroke="none" /><path d="M 120.95626037817324 101.35467743843564 l 7.990778921061622 0.5165486458244172 a29.007457166216113,29.007457166216113 0 0,0 -0.03649889727277377,0.4979984547781038 l -7.9807034651245115 -0.6540202370992912" fill="#ff5d08" stroke="none" /><path d="M 120.89721153311464 102.0752229133903 l 8.690946624792295 0.8630649857872649 a29.733695346454475,29.733695346454475 0 0,0 -0.05496160101039269,0.5088761653082285 l -8.67480272228085 -1.0125374729802847" fill="#ff6709" stroke="none" /><path d="M 120.81339534386255 102.79330883721812 l 10.072066615751268 1.3517445002131199 a31.1623687743551,31.1623687743551 0 0,0 -0.07592629385288135,0.5310283223675846 l -10.047306270881785 -1.5249182945611137" fill="#ff7a0b" stroke="none" /><path d="M 120.64145759157962 103.86396538481128 l 7.429670135987704 1.390792684995928 a28.55872361065185,28.55872361065185 0 0,0 -0.09461106265345394,0.4824197701590152 l -7.404629140358586 -1.5184761822228883" fill="#ff5708" stroke="none" /><path d="M 120.41448212921028 104.9243191809786 l 7.071618018248876 1.7057941527691312 a28.274442596353587,28.274442596353587 0 0,0 -0.11819886450350611,0.47214570833798164 l -7.041207839450309 -1.8272677005045088" fill="#ff5307" stroke="none" /><path d="M 120.13307415673323 105.97154293290107 l 7.234475896434579 2.1457718317770724 a28.545990872651572,28.545990872651572 0 0,0 -0.14378102793384925,0.4698847184024197 l -7.1964680959945975 -2.269983522731549" fill="#ff5608" stroke="none" /><path d="M 118.81262510543309 109.33194174019688 l 2.167916653054857 1.0753880327986685 a23.419983891615637,23.419983891615637 0 0,0 -0.18225356767390374,0.35960357942105736 l -2.1490844155946838 -1.1125458239224202" fill="#ff0d01" stroke="none" /><line stroke="#e1ed5e" stroke-width="0.3" x1="174.80103733775053" x2="179.2010983576182" y1="140.37084112569926" y2="142.7455964860345" /><path d="M 175.68104954172406 140.8457921977663 a86.0,86.0 0 0,1 -30.038265399797805,32.042727171017184" fill="none" id="id41" stroke="none" /><text fill="#e1ed5e" style="font-size:6.75px; font-family:Arial;" text-anchor="middle"><textPath startOffset="22.206326154141568" xlink:href="#id41">May</textPath></text><path d="M 118.30583269289576 110.29060199501025 l 10.119490549444476 5.6886595318340385 a32.608830098223606,32.608830098223606 0 0,0 -0.2792682381415105,0.4869277127895701 l -10.020070315150585 -5.8620070904819235" fill="#ff8e0d" stroke="none" /><path d="M 118.12598468904814 110.60418214915192 l 2.885139249878362 1.6878830395274016 a24.342600431746657,24.342600431746657 0 0,0 -0.21470072072362248,0.3598507574951738 l -2.855657653456513 -1.7372958909086795" fill="#ff1b02" stroke="none" /><path d="M 117.94076556474637 110.91462005526583 l 6.990819437503038 4.253003460746772 a29.18288426197599,29.18288426197599 0 0,0 -0.2647795889706538,0.42690900507722124 l -6.916575208864422 -4.372708797189267" fill="#ff5f08" stroke="none" /><path d="M 117.75023020441432 111.22182372390056 l 2.716748320834555 1.7175479082534024 a24.21413942695444,24.21413942695444 0 0,0 -0.22576241606227127,0.35038828325437055 l -2.6867810413952333 -1.7640577914292257" fill="#ff1902" stroke="none" /><path d="M 117.55443506779139 111.5257021239791 l 6.0741721658943915 3.988114613970994 a28.26640390255697,28.26640390255697 0 0,0 -0.27054568598191553,0.4044290924222519 l -6.0046233745017545 -4.092080620599053" fill="#ff5207" stroke="none" /><path d="M 117.14729908036423 112.12312394758627 l 3.665999444253529 2.5918580789998016 a25.489685983111038,25.489685983111038 0 0,0 -0.2563779412206381,0.3560865369070535 l -3.6208417106572877 -2.6545782213579865" fill="#ff2b04" stroke="none" /><path d="M 114.29624159901734 115.38237550388516 l 5.143193700750274 5.5339395495103725 a28.554927423944743,28.554927423944743 0 0,0 -0.36292014259008826,0.33151894550251804 l -5.047174008693322 -5.621651261599474" fill="#ff5608" stroke="none" /><path d="M 114.0293411484842 115.62618273729858 l 4.872109771244074 5.426660938376537 a28.292880265241827,28.292880265241827 0 0,0 -0.36519055019962327,0.3222382005739691 l -4.777976868137863 -5.509722280722795" fill="#ff5307" stroke="none" /><path d="M 113.48314897796784 116.09983520530334 l 4.679520100239162 5.587678559130638 a28.2883509828157,28.2883509828157 0 0,0 -0.3760058939769527,0.30942725239210006 l -4.582644077717518 -5.667400930379917" fill="#ff5307" stroke="none" /><path d="M 112.92097659922987 116.55440617244103 l 9.231431521470219 11.827346469198142 a36.00351466950487,36.00351466950487 0 0,0 -0.49182733485447677,0.37711222777296083 l -9.026475458122249 -11.984498038798474" fill="#ffbb11" stroke="none" /><path d="M 112.63410532772338 116.77436683061366 l 5.43746053522821 7.219344407772057 a30.037970499520007,30.037970499520007 0 0,0 -0.4156897945373476,0.30751737225929104 l -5.312385770272298 -7.311871728771117" fill="#ff6b09" stroke="none" /><path d="M 112.04921762599082 117.19931262002967 l 9.326134378669968 13.312324973627558 a37.25406960279418,37.25406960279418 0 0,0 -0.5283746738558174,0.36342091865553605 l -9.095602820191267 -13.470886681648187" fill="#ffcb12" stroke="none" /><path d="M 111.7513745106137 117.40417183066458 l 8.687785177009447 12.866895350157352 a36.525289280195906,36.525289280195906 0 0,0 -0.5240949426649996,0.34734154997462746 l -8.465015535604483 -13.014534921223298" fill="#ffc112" stroke="none" /><path d="M 111.45004920935366 117.60387380957326 l 8.243798368038583 12.6744246709407 a36.119565214391116,36.119565214391116 0 0,0 -0.5241089915703636,0.3345111557788829 l -8.02440757442129 -12.814450255543392" fill="#ffbc11" stroke="none" /><path d="M 111.1453310114006 117.79835938074945 l 8.537704007770637 13.634150844091506 a37.08671684849783,37.08671684849783 0 0,0 -0.5439752474075347,0.3341540264383855 l -8.301749560430794 -13.779093337358269" fill="#ffc912" stroke="none" /><line stroke="#e1ed5e" stroke-width="0.3" x1="143.8653032363475" x2="146.44561519142675" y1="172.8068346515853" y2="177.08958963109032" /><path d="M 144.38136562736335 173.6633856474863 a86.0,86.0 0 0,1 -40.68145358897372,12.25698825130547" fill="none" id="id42" stroke="none" /><text fill="#e1ed5e" style="font-size:6.75px; font-family:Arial;" text-anchor="middle"><textPath startOffset="21.466115282336833" xlink:href="#id42">June</textPath></text><path d="M 110.21172684928248 118.3499491758327 l 12.598558515970836 22.638963210523276 a46.90842202697354,46.90842202697354 0 0,0 -0.7089363372666478,0.38656861633169837 l -12.206999366835541 -22.852472478614747" fill="#beff1f" stroke="none" /><line stroke="#e1ed5e" stroke-width="0.3" x1="102.19456741930631" x2="102.32365962044197" y1="184.97166512339345" y2="189.96999836594603" /><path d="M 102.22038585953345 185.97133177190398 a86.0,86.0 0 0,1 -42.740103519485714,-10.115201625700543" fill="none" id="id43" stroke="none" /><text fill="#e1ed5e" style="font-size:6.75px; font-family:Arial;" text-anchor="middle"><textPath startOffset="22.20632615414155" xlink:href="#id43">July</textPath></text><path d="M 100.18074693466247 120.99922214144158 l 0.06696440502074347 7.779940607159276 a28.78022879370945,28.78022879370945 0 0,0 -0.49542267936639245,0.0 l 0.06696440502073811 -7.779940607159276" fill="#ff5a08" stroke="none" /><path d="M 92.7421414339146 119.70592522655815 l -2.7704248423961957 7.522023788830085 a29.01599000043611,29.01599000043611 0 0,0 -0.4671985853937761,-0.17665452840210424 l 2.899493648550255 -7.473221010321347" fill="#ff5d08" stroke="none" /><path d="M 90.10565033884886 118.52300852407294 l -3.889001056926313 7.280518901652994 a29.254107141181322,29.254107141181322 0 0,0 -0.44212315551245956,-0.24108079596203902 l 4.013747024307413 -7.212497453931189" fill="#ff6008" stroke="none" /><line stroke="#e1ed5e" stroke-width="0.3" x1="58.666819895761336" x2="56.23545636021788" y1="174.27360380694188" y2="178.64263932499728" /><path d="M 58.180547188652646 175.14741091055294 a86.0,86.0 0 0,1 -31.652253787137756,-30.449443065178592" fill="none" id="id44" stroke="none" /><text fill="#e1ed5e" style="font-size:6.75px; font-family:Arial;" text-anchor="middle"><textPath startOffset="22.20632615414155" xlink:href="#id44">August</textPath></text><path d="M 88.54995079064634 117.60387380957326 l -2.556678195373485 3.930763920758982 a25.68908396122726,25.68908396122726 0 0,0 -0.3686081411291057,-0.2442933763527789 l 2.623961035242553 -3.886172523314885" fill="#ff2e04" stroke="none" /><path d="M 84.19399662182784 113.82643327865904 l -10.90683591844852 9.540845683733451 a35.49092150668045,35.49092150668045 0 0,0 -0.3982714997754662,-0.46327973127817507 l 11.069449927794764 -9.351688853293746" fill="#ffb410" stroke="none" /><path d="M 83.95833913139862 113.55231037782056 l -11.069449927794764 9.351688853293746 a35.49092150668045,35.49092150668045 0 0,0 -0.39023789254081115,-0.4700666805591561 l 11.228783820229113 -9.15976091562083" fill="#ffb410" stroke="none" /><path d="M 82.05923443525364 110.91462005526583 l -7.712499926611303 4.692052079463089 a30.02762470611031,30.02762470611031 0 0,0 -0.2648423977584709,-0.44389109234945534 l 7.792123200068006 -4.558598893227523" fill="#ff6b09" stroke="none" /><line stroke="#e1ed5e" stroke-width="0.3" x1="26.63291911575756" x2="22.317208475507996" y1="142.92168965132927" y2="145.44649492493687" /><path d="M 25.769776987707644 143.4266507060508 a86.0,86.0 0 0,1 -11.730757126820373,-40.83630448921669" fill="none" id="id45" stroke="none" /><text fill="#e1ed5e" style="font-size:6.75px; font-family:Arial;" text-anchor="middle"><textPath startOffset="21.46611528233685" xlink:href="#id45">September</textPath></text><path d="M 80.73074385275274 108.34839909993369 l -47.741978450471635 20.68419698608393 a73.03011158285577,73.03011158285577 0 0,0 -0.4898199790410286,-1.1577897399702668 l 48.09094941070497 -19.8593327204475" fill="#3fffc0" stroke="none" /><path d="M 79.23777060512086 103.15116336523772 l -1.9659066292562717 0.29837320606419404 a22.988420339126208,22.988420339126208 0 0,0 -0.05601068296574806,-0.3917385862082937 l 1.9707513632386189 -0.2644891478754997" fill="#ff0701" stroke="none" /><path d="M 79.07016306316243 101.71520430193888 l -13.590309966026963 1.113728606140511 a34.63586874316512,34.63586874316512 0 0,0 -0.043580897421181174,-0.5946267201277717 l 13.60746742211248 -0.8796287495159786" fill="#ffa90f" stroke="none" /><line stroke="#e1ed5e" stroke-width="0.3" x1="15.007084014347285" x2="10.007500721073583" y1="101.09737516637583" y2="101.16192664675087" /><path d="M 14.007167355692545 101.11028546245083 a86.0,86.0 0 0,1 10.666146001902534,-42.60595125391555" fill="none" id="id46" stroke="none" /><text fill="#e1ed5e" style="font-size:6.75px; font-family:Arial;" text-anchor="middle"><textPath startOffset="22.20632615414155" xlink:href="#id46">October</textPath></text><path d="M 79.00175016825051 100.2711162175752 l -14.504203527601788 0.18726916913802175 a35.505412428187135,35.505412428187135 0 0,0 -0.0026302793500878156,-0.6111842888218608 l 14.505278104241379 0.062424597887514414" fill="#ffb410" stroke="none" /><path d="M 79.26566170972629 96.67025291283419 l -1.507771287689187 -0.24213442372792685 a22.527089825496184,22.527089825496184 0 0,0 0.06477947713944945,-0.38233214103298835 l 1.5033799490295146 0.26805235307674313" fill="#ff0000" stroke="none" /><line stroke="#e1ed5e" stroke-width="0.3" x1="26.266209847984243" x2="21.928928074336255" y1="57.711370442889674" y2="55.22380399835377" /><path d="M 25.398753493254645 57.213857153982495 a86.0,86.0 0 0,1 29.58750427330803,-30.492523968695096" fill="none" id="id47" stroke="none" /><text fill="#e1ed5e" style="font-size:6.75px; font-family:Arial;" text-anchor="middle"><textPath startOffset="21.46611528233685" xlink:href="#id47">November</textPath></text><path d="M 81.78341655067845 89.55222093294921 l -6.293270764092697 -3.609387168306756 a28.254855797389865,28.254855797389865 0 0,0 0.24560240833569388,-0.41981412903607773 l 6.230208681286679 3.7171807096967253" fill="#ff5207" stroke="none" /><line stroke="#e1ed5e" stroke-width="0.3" x1="56.762969772571076" x2="54.21961505331055" y1="26.818313649435495" y2="22.513508569990535" /><path d="M 56.25429882871897 25.957352633546506 a86.0,86.0 0 0,1 42.265352541879196,-11.944610805530505" fill="none" id="id48" stroke="none" /><text fill="#e1ed5e" style="font-size:6.75px; font-family:Arial;" text-anchor="middle"><textPath startOffset="22.20632615414155" xlink:href="#id48">December</textPath></text><path d="M 93.59665428221793 80.00007090966166 l -1.3659903399876774 -4.266474299829531 a25.479813897925396,25.479813897925396 0 0,0 0.41885735515106237,-0.13014101913856366 l 1.2923476121258861 4.289355453850619" fill="#ff2b04" stroke="none" /><path d="M 93.94186890950719 79.89281104454417 l -2.2271247316265295 -7.391919576725546 a28.720139869134556,28.720139869134556 0 0,0 0.4745794991876795,-0.13854276963962062 l 2.0995550147154285 7.429160675283866" fill="#ff5908" stroke="none" /></svg>