<?xml version="1.0" encoding="utf-8" ?>
<svg baseProfile="full" height="200mm" version="1.1" viewBox="0,0,200,200" width="200mm" xmlns="http://www.w3.org/2000/svg" xmlns:ev="http://www.w3.org/2001/xml-events" xmlns:xlink="http://www.w3.org/1999/xlink"><defs /><rect fill="#1a1a1a" height="200" width="200" x="0" y="0" /><text alignment-baseline="middle" fill="#e1ed5e" style="dominant-baseline: central; font-size:9.0px; font-family:Arial;" text-anchor="middle" x="100.0" y="100.0">2020</text><line stroke="#e1ed5e" stroke-width="0.3" x1="100.0" x2="100.0" y1="15.0" y2="10.0" /><path d="M 100.0 14.0 a86.0,86.0 0 0,1 42.35913384403234,11.155469271406648" fill="none" id="id49" stroke="none" /><text fill="#e1ed5e" style="font-size:6.75px; font-family:Arial;" text-anchor="middle"><textPath startOffset="22.145653131862478" xlink:href="#id49">January</textPath></text><line stroke="#e1ed5e" stroke-width="0.3" x1="143.13028292997686" x2="145.6673583964461" y1="26.7553504044142" y2="22.446841604673864" /><path d="M 143.63769802327073 25.89364864446614 a86.0,86.0 0 0,1 29.32050498858742,28.57503671076993" fill="none" id="id50" stroke="none" /><text fill="#e1ed5e" style="font-size:6.75px; font-family:Arial;" text-anchor="middle"><textPath startOffset="20.669276256404974" xlink:href="#id50">February</textPath></text><line stroke="#e1ed5e" stroke-width="0.3" x1="172.87174338648825" x2="177.1583165268699" y1="56.24261187166439" y2="53.66864786411523" /><path d="M 173.72905801456457 55.72781907015455 a86.0,86.0 0 0,1 12.242430191666344,42.057860355516425" fill="none" id="id51" stroke="none" /><text fill="#e1ed5e" style="font-size:6.75px; font-family:Arial;" text-anchor="middle"><textPath startOffset="22.145653131862474" xlink:href="#id51">March</textPath></text><line stroke="#e1ed5e" stroke-width="0.3" x1="184.99686870605535" x2="189.99668451229388" y1="99.2704041080226" y2="99.22748670261217" /><path d="M 185.99683186730306 99.26182062694052 a86.0,86.0 0 0,1 -10.086455211305974,41.156179273409016" fill="none" id="id52" stroke="none" /><text fill="#e1ed5e" style="font-size:6.75px; font-family:Arial;" text-anchor="middle"><textPath startOffset="21.40746469413373" xlink:href="#id52">April</textPath></text><line stroke="#e1ed5e" stroke-width="0.3" x1="174.33088141563837" x2="178.70328620479359" y1="141.23008692659167" y2="143.65538615756765" /><path d="M 175.20536237346943 141.71514677278685 a86.0,86.0 0 0,1 -30.301960400862466,31.631185727798858" fill="none" id="id53" stroke="none" /><text fill="#e1ed5e" style="font-size:6.75px; font-family:Arial;" text-anchor="middle"><textPath startOffset="22.145653131862474" xlink:href="#id53">May</textPath></text><line stroke="#e1ed5e" stroke-width="0.3" x1="143.1302829299769" x2="145.66735839644613" y1="173.24464959558577" y2="177.55315839532614" /><path d="M 143.63769802327073 174.10635135553383 a86.0,86.0 0 0,1 -40.68552437913181,11.842963189579606" fill="none" id="id54" stroke="none" /><text fill="#e1ed5e" style="font-size:6.75px; font-family:Arial;" text-anchor="middle"><textPath startOffset="21.407464694133747" xlink:href="#id54">June</textPath></text><line stroke="#e1ed5e" stroke-width="0.3" x1="101.45913802915013" x2="101.54496967792366" y1="184.9874750549273" y2="189.98673829345242" /><path d="M 101.47630435890484 185.9873277026323 a86.0,86.0 0 0,1 -42.54439059252881,-10.42667462771756" fill="none" id="id55" stroke="none" /><text fill="#e1ed5e" style="font-size:6.75px; font-family:Arial;" text-anchor="middle"><textPath startOffset="22.145653131862474" xlink:href="#id55">July</textPath></text><line stroke="#e1ed5e" stroke-width="0.3" x1="58.13341422392154" x2="55.67067388415222" y1="173.97424548756322" y2="178.32567169271397" /><path d="M 57.64086615596768 174.84453072859336 a86.0,86.0 0 0,1 -31.369924170532247,-30.572349798747897" fill="none" id="id56" stroke="none" /><text fill="#e1ed5e" style="font-size:6.75px; font-family:Arial;" text-anchor="middle"><textPath startOffset="22.145653131862474" xlink:href="#id56">August</textPath></text><path d="M 82.98947788004972 112.3143062007846 l -26.24745414255735 19.001132653266744 a53.40326975897171,53.40326975897171 0 0,0 -0.5311969877038447,-0.7471950868267403 l 26.569766228791156 -18.547760339730498" fill="#94ff23" stroke="none" /><line stroke="#e1ed5e" stroke-width="0.3" x1="26.387840678322732" x2="22.057713659400548" y1="142.50000000000003" y2="145.00000000000006" /><path d="M 25.521815274538298 143.00000000000003 a86.0,86.0 0 0,1 -11.493303480769221,-40.785679425670985" fill="none" id="id57" stroke="none" /><text fill="#e1ed5e" style="font-size:6.75px; font-family:Arial;" text-anchor="middle"><textPath startOffset="21.40746469413373" xlink:href="#id57">September</textPath></text><path d="M 81.63589988554817 110.18625677009913 l -27.350410081138197 15.17081142651447 a52.27616426202689,52.27616426202689 0 0,0 -0.42855165628480185,-0.7884867787850263 l 27.60680708703833 -14.699069814254857" fill="#a1ff22" stroke="none" /><path d="M 79.34024301695615 103.76489593502545 l -30.826055884361278 5.617534252080072 a52.33372643748358,52.33372643748358 0 0,0 -0.15347533780780515,-0.8852049639915208 l 30.917946039661317 -5.087536255167959" fill="#a1ff22" stroke="none" /><path d="M 79.03789590574601 101.26102812881392 l -31.24380759009321 1.8795498794015264 a52.30029106056243,52.30029106056243 0 0,0 -0.04621953681155523,-0.8966466664956805 l 31.271468716361337 -1.3429314195291153" fill="#a1ff22" stroke="none" /><line stroke="#e1ed5e" stroke-width="0.3" x1="15.003131293944662" x2="10.003315487706104" y1="100.72959589197737" y2="100.7725132973878" /><path d="M 14.003168132696942 100.73817937305945 a86.0,86.0 0 0,1 10.791469493833604,-42.45332614584628" fill="none" id="id58" stroke="none" /><text fill="#e1ed5e" style="font-size:6.75px; font-family:Arial;" text-anchor="middle"><textPath startOffset="22.145653131862435" xlink:href="#id58">October</textPath></text><path d="M 79.00077361379809 100.18025310272382 l -62.99767915860572 0.5407593081714642 a84.0,84.0 0 0,0 0.0,-1.4420248217905405 l 62.99767915860572 0.540759308171441" fill="#4dd2ff" stroke="none" /><path d="M 79.83685265289637 94.1308016681162 l -59.82326497762042 -17.41368056137965 a83.30617387768532,83.30617387768532 0 0,0 0.4114677581433818,-1.369642344223691 l 59.51552089947341 18.438060509194063" fill="#4cd9ff" stroke="none" /><path d="M 80.5471966667186 92.08871423366112 l -8.261956059858061 -3.360065603842537 a29.91907836029884,29.91907836029884 0 0,0 0.197571567802922,-0.47409983932318245 l 8.203058647518661 3.501397952606983" fill="#ff2503" stroke="none" /><line stroke="#e1ed5e" stroke-width="0.3" x1="26.387840678322718" x2="22.05771365940052" y1="57.49999999999999" y2="54.99999999999999" /><path d="M 25.521815274538284 56.99999999999999 a86.0,86.0 0 0,1 29.574782752854787,-30.34633250058573" fill="none" id="id59" stroke="none" /><text fill="#e1ed5e" style="font-size:6.75px; font-family:Arial;" text-anchor="middle"><textPath startOffset="21.40746469413373" xlink:href="#id59">November</textPath></text><path d="M 81.81346652052679 89.5 l -5.714643413987956 -3.299350913388669 a27.598701826777337,27.598701826777337 0 0,0 0.24040610144794566,-0.40826211805249607 l 5.657163602410231 3.3969641997347377" fill="#ff0000" stroke="none" /><line stroke="#e1ed5e" stroke-width="0.3" x1="56.869717070023135" x2="54.33264160355391" y1="26.7553504044142" y2="22.446841604673864" /><path d="M 56.362301976729285 25.89364864446614 a86.0,86.0 0 0,1 42.16139366436587,-11.88097634709845" fill="none" id="id60" stroke="none" /><text fill="#e1ed5e" style="font-size:6.75px; font-family:Arial;" text-anchor="middle"><textPath startOffset="22.145653131862474" xlink:href="#id60">December</textPath></text><path d="M 89.34428304082924 81.90426304109057 l -10.434771778537277 -17.72052373896357 a41.56456718857291,41.56456718857291 0 0,0 0.6179414736378549,-0.35676867614824764 l 10.129037837039021 17.897039312387992" fill="#ffd113" stroke="none" /><path d="M 89.97174638481275 81.54914285379989 l -14.965088073980434 -27.534076503126013 a52.33814337101015,52.33814337101015 0 0,0 0.7930753610296117,-0.42226795960090646 l 14.49022389716426 27.786914930449495" fill="#a1ff22" stroke="none" /><path d="M 90.61103034731259 81.2157712731953 l -27.185133504969485 -54.3884776089254 a81.80409509481737,81.80409509481737 0 0,0 1.2614960840404268,-0.6170609490790904 l 26.247477171667004 54.8471323081017" fill="#4ae8ff" stroke="none" /><path d="M 91.5904679813234 80.7573450057729 l -12.553458215273995 -28.72476909350989 a52.34807286960542,52.34807286960542 0 0,0 0.826513564094453,-0.3527894929774267 l 12.05850957600911 28.936033236146724" fill="#a0ff22" stroke="none" /><path d="M 92.93061703081487 80.22567764915836 l -21.099082525555126 -59.01788897078656 a83.67601217362409,83.67601217362409 0 0,0 1.356723769686236,-0.4719389542025778 l 20.082852983823887 59.37138635755772" fill="#4dd5ff" stroke="none" /><path d="M 93.95794788825049 79.88797359093562 l -9.027875613654809 -30.050861760442462 a52.3776485836789,52.3776485836789 0 0,0 0.8633332682016309,-0.25130373201963335 l 8.510682333071554 30.201409186764618" fill="#a0ff22" stroke="none" /></svg>