<?xml version="1.0" encoding="utf-8" ?>
<svg baseProfile="full" height="200mm" version="1.1" viewBox="0,0,200,200" width="200mm" xmlns="http://www.w3.org/2000/svg" xmlns:ev="http://www.w3.org/2001/xml-events" xmlns:xlink="http://www.w3.org/1999/xlink"><defs /><rect fill="#1a1a1a" height="200" width="200" x="0" y="0" /><text alignment-baseline="middle" fill="#e1ed5e" style="dominant-baseline: central; font-size:9.0px; font-family:Arial;" text-anchor="middle" x="100.0" y="100.0">2018</text><line stroke="#e1ed5e" stroke-width="0.3" x1="100.0" x2="100.0" y1="15.0" y2="10.0" /><path d="M 100.0 14.0 a86.0,86.0 0 0,1 42.46469731375804,11.215312516191453" fill="none" id="id25" stroke="none" /><text fill="#e1ed5e" style="font-size:6.75px; font-family:Arial;" text-anchor="middle"><textPath startOffset="22.20632615414155" xlink:href="#id25">January</textPath></text><path d="M 100.72285384407766 79.0124445844662 l 0.46783401356049503 -13.583233132557844 a34.59128731936976,34.59128731936976 0 0,0 0.5949028826116692,0.02561776953671392 l -0.7015777285614958 13.573167636496935" fill="#ffa90f" stroke="none" /><path d="M 103.2404852339499 79.25152402106235 l 1.0552943480916401 -6.756935412848282 a27.8388465646275,27.8388465646275 0 0,0 0.4728239763992256,0.07802000741803428 l -1.171447530629741 6.737769142490623" fill="#ff4e07" stroke="none" /><path d="M 105.71112130821622 79.79150937346287 l 2.4819584611892527 -8.78227437162654 a30.126251198690362,30.126251198690362 0 0,0 0.49781446996508977,0.14532569475439264 l -2.6327631488777694 8.738250347953445" fill="#ff6d0a" stroke="none" /><path d="M 110.05341064243156 81.56283822128135 l 6.479557242198831 -11.88299666430354 a34.53478007870022,34.53478007870022 0 0,0 0.5194621483836366,0.28908012316575893 l -6.683143479654502 11.769701143577603" fill="#ffa80f" stroke="none" /><line stroke="#e1ed5e" stroke-width="0.3" x1="143.23703022742887" x2="145.7803849466894" y1="26.81831364943548" y2="22.513508569990506" /><path d="M 143.74570117128098 25.957352633546492 a86.0,86.0 0 0,1 28.547481713284135,27.462654790039103" fill="none" id="id26" stroke="none" /><text fill="#e1ed5e" style="font-size:6.75px; font-family:Arial;" text-anchor="middle"><textPath startOffset="19.985693538727396" xlink:href="#id26">February</textPath></text><line stroke="#e1ed5e" stroke-width="0.3" x1="172.23445277983987" x2="176.4835382374775" y1="55.19839476539836" y2="52.563006222186495" /><path d="M 173.08426987136738 54.67131705675599 a86.0,86.0 0 0,1 12.851231095245387,41.99856678651699" fill="none" id="id27" stroke="none" /><text fill="#e1ed5e" style="font-size:6.75px; font-family:Arial;" text-anchor="middle"><textPath startOffset="22.20632615414155" xlink:href="#id27">March</textPath></text><path d="M 118.73160827565052 90.50648371742162 l 12.158333587432109 -6.16206233777318 a34.630703865827414,34.630703865827414 0 0,0 0.2649083724009941,0.5340391138324075 l -12.262601972786513 5.951863635441822" fill="#ffaa0f" stroke="none" /><path d="M 120.18372546131832 94.20196356495316 l 20.814298997252674 -5.9791768465794215 a42.65607532563796,42.65607532563796 0 0,0 0.19665106701140408,0.707458517925212 l -20.91413683483044 5.620007025235258" fill="#efff19" stroke="none" /><path d="M 120.67395015179393 96.31383870115 l 6.69893346093199 -1.1944185356912078 a27.804582658208876,27.804582658208876 0 0,0 0.07995557085411062,0.47190230520631626 l -6.718500893306323 1.0789304421690535" fill="#ff4d07" stroke="none" /><path d="M 120.73433829027371 96.67025291283417 l 11.616836552183798 -1.8655588198761333 a32.76567895153404,32.76567895153404 0 0,0 0.08463547526574768,0.5576420352549685 l -11.647227920888847 1.6653176722290826" fill="#ff910d" stroke="none" /><path d="M 120.96714384426684 98.82574320788733 l 8.083446182447947 -0.4527102810911548 a29.09611318986697,29.09611318986697 0 0,0 0.02370140529087595,0.5002992053952859 l -8.090041195972319 0.31349996907286914" fill="#ff5f08" stroke="none" /><path d="M 120.98425023603335 99.18683210126433 l 5.628283563799107 -0.21810355231105735 a26.632507881402553,26.632507881402553 0 0,0 0.013808708725007238,0.4582438164995112 l -5.63120396697976 0.12118958838654711" fill="#ff3d05" stroke="none" /><line stroke="#e1ed5e" stroke-width="0.3" x1="184.98032266829074" x2="189.97916517819016" y1="98.17113171792111" y2="98.06355123074" /><path d="M 185.9800911702706 98.14961562048488 a86.0,86.0 0 0,1 -9.607161424134198,41.387399972396054" fill="none" id="id28" stroke="none" /><text fill="#e1ed5e" style="font-size:6.75px; font-family:Arial;" text-anchor="middle"><textPath startOffset="21.466115282336823" xlink:href="#id28">April</textPath></text><path d="M 120.76222939487914 103.15116336523771 l 6.687187893306514 1.0149402121067956 a27.763770069608857,27.763770069608857 0 0,0 -0.07577955203364518,0.47187934285073974 l -6.66872658691158 -1.1298987846507402" fill="#ff4d07" stroke="none" /><path d="M 120.41448212921028 104.9243191809786 l 7.07720188809085 1.7071410768396458 a28.28018661993152,28.28018661993152 0 0,0 -0.11822287689781873,0.47224162591696384 l -7.0467676968979704 -1.8287105421540055" fill="#ff5407" stroke="none" /><path d="M 120.32669344350535 105.2749913415812 l 6.629660221460615 1.7204667528945252 a27.849262770534697,27.849262770534697 0 0,0 -0.1244091863317708,0.46297286369382445 l -6.599062958787067 -1.834330549763898" fill="#ff4e07" stroke="none" /><path d="M 120.23288151984713 105.62410040840565 l 6.557658496494602 1.8228214202777968 a27.80628848102043,27.80628848102043 0 0,0 -0.13215582529881323,0.46005176508064766 l -6.5253100343096895 -1.9354306608630263" fill="#ff4d07" stroke="none" /><path d="M 120.13307415673323 105.97154293290107 l 6.484546875739417 1.9233401599495517 a27.763770069608857,27.763770069608857 0 0,0 -0.13984112226953152,0.45700887873001317 l -6.450478980963752 -2.034676011231622" fill="#ff4d07" stroke="none" /><path d="M 119.79798401119884 107.00284435728193 l 3.2549799108395865 1.151335291956767 a24.452602956390216,24.452602956390216 0 0,0 -0.14377634382790758,0.39561074873180796 l -3.234679306006452 -1.207193837694706" fill="#ff1d03" stroke="none" /><line stroke="#e1ed5e" stroke-width="0.3" x1="174.80103733775053" x2="179.2010983576182" y1="140.37084112569926" y2="142.7455964860345" /><path d="M 175.68104954172406 140.8457921977663 a86.0,86.0 0 0,1 -30.038265399797805,32.042727171017184" fill="none" id="id29" stroke="none" /><text fill="#e1ed5e" style="font-size:6.75px; font-family:Arial;" text-anchor="middle"><textPath startOffset="22.206326154141568" xlink:href="#id29">May</textPath></text><path d="M 117.35343817320211 111.8261652097733 l 5.631053388654626 3.8374970432153437 a27.81433385024283,27.81433385024283 0 0,0 -0.273029597513264,0.3933194987274746 l -5.564162883979226 -3.933857804129838" fill="#ff4d07" stroke="none" /><path d="M 114.55890576462653 115.13401014063108 l 18.92736184000008 19.675028511959255 a48.30113135327364,48.30113135327364 0 0,0 -0.6041417316613152,0.57125371591137 l -18.585884273947958 -19.997916864616545" fill="#adff20" stroke="none" /><path d="M 114.0293411484842 115.62618273729858 l 4.714016850251706 5.25057363343799 a28.056236840172758,28.056236840172758 0 0,0 -0.36213607353298766,0.31954298005357556 l -4.622938423812131 -5.330939755263855" fill="#ff5107" stroke="none" /><path d="M 112.92097659922987 116.55440617244103 l 2.5019994192138815 3.2055715224611454 a25.066409949741967,25.066409949741967 0 0,0 -0.34242061401837226,0.2625535252652461 l -2.4464500767020154 -3.248164389553763" fill="#ff2603" stroke="none" /><path d="M 111.45004920935366 117.60387380957326 l 15.579931060421329 23.95335909346627 a49.57442324366363,49.57442324366363 0 0,0 -0.7193442340653308,0.4591195247749604 l -15.165305024309067 -24.21799304706504" fill="#9fff22" stroke="none" /><line stroke="#e1ed5e" stroke-width="0.3" x1="143.8653032363475" x2="146.44561519142675" y1="172.8068346515853" y2="177.08958963109032" /><path d="M 144.38136562736335 173.6633856474863 a86.0,86.0 0 0,1 -40.68145358897372,12.25698825130547" fill="none" id="id30" stroke="none" /><text fill="#e1ed5e" style="font-size:6.75px; font-family:Arial;" text-anchor="middle"><textPath startOffset="21.466115282336833" xlink:href="#id30">June</textPath></text><path d="M 110.8373102113329 117.98757091392108 l 3.521592349752531 5.845075104969672 a27.82396627047436,27.82396627047436 0 0,0 -0.4123672504187725,0.2436338401078754 l -3.4204572283053762 -5.904827517371296" fill="#ff4d07" stroke="none" /><path d="M 106.2309692047433 120.05430185196036 l 3.2162759478141516 10.351546697994324 a31.839693261953727,31.839693261953727 0 0,0 -0.5247864116242127,0.15811384093379813 l -3.037614561749693 -10.405375908033848" fill="#ff850c" stroke="none" /><line stroke="#e1ed5e" stroke-width="0.3" x1="102.19456741930631" x2="102.32365962044197" y1="184.97166512339345" y2="189.96999836594603" /><path d="M 102.22038585953345 185.97133177190398 a86.0,86.0 0 0,1 -42.740103519485714,-10.115201625700543" fill="none" id="id31" stroke="none" /><text fill="#e1ed5e" style="font-size:6.75px; font-family:Arial;" text-anchor="middle"><textPath startOffset="22.20632615414155" xlink:href="#id31">July</textPath></text><path d="M 93.08242187328487 119.8279376855182 l -6.684129698236668 19.158801637053923 a41.29131020882657,41.29131020882657 0 0,0 -0.6690773895254172,-0.23990734725051543 l 7.012926648391812 -19.04090674876345" fill="#fffe18" stroke="none" /><line stroke="#e1ed5e" stroke-width="0.3" x1="58.666819895761336" x2="56.23545636021788" y1="174.27360380694188" y2="178.64263932499728" /><path d="M 58.180547188652646 175.14741091055294 a86.0,86.0 0 0,1 -31.652253787137756,-30.449443065178592" fill="none" id="id32" stroke="none" /><text fill="#e1ed5e" style="font-size:6.75px; font-family:Arial;" text-anchor="middle"><textPath startOffset="22.20632615414155" xlink:href="#id32">August</textPath></text><path d="M 88.8546689885994 117.79835938074946 l -12.374952963701011 19.761984632176716 a44.3168500757757,44.3168500757757 0 0,0 -0.6430547949546207,-0.41042799522462253 l 12.713289560702554 -19.546042208128288" fill="#dbff1b" stroke="none" /><path d="M 87.07902340077011 116.55440617244103 l -4.205175435204074 5.387687350574482 a27.834520863117184,27.834520863117184 0 0,0 -0.3751596463860807,-0.2980495124776997 l 4.297292574307513 -5.314503924091652" fill="#ff4e07" stroke="none" /><path d="M 84.19399662182784 113.82643327865904 l -9.694469742825362 8.48031826035547 a33.88016076729925,33.88016076729925 0 0,0 -0.3801958886552524,-0.44225371192408497 l 9.839008141051393 -8.312187449269853" fill="#ffa00e" stroke="none" /><line stroke="#e1ed5e" stroke-width="0.3" x1="26.63291911575756" x2="22.317208475507996" y1="142.92168965132927" y2="145.44649492493687" /><path d="M 25.769776987707644 143.4266507060508 a86.0,86.0 0 0,1 -11.730757126820373,-40.83630448921669" fill="none" id="id33" stroke="none" /><text fill="#e1ed5e" style="font-size:6.75px; font-family:Arial;" text-anchor="middle"><textPath startOffset="21.46611528233685" xlink:href="#id33">September</textPath></text><path d="M 81.51974371655577 109.97397251340807 l -5.983449257208887 3.2293252599660813 a27.799279862474304,27.799279862474304 0 0,0 -0.22364850504378417,-0.4230586874031146 l 6.038150270477558 -3.1258515574768406" fill="#ff4d07" stroke="none" /><path d="M 81.18737489456691 109.33194174019688 l -12.218460215302226 6.060927608193515 a34.63912070130203,34.63912070130203 0 0,0 -0.2603653522109618,-0.5364297432245215 l 12.320978824127907 -5.849708909003708" fill="#ffaa0f" stroke="none" /><path d="M 81.02952815118164 109.00673069616217 l -13.568532303770116 6.442017751384837 a36.020141863098715,36.020141863098715 0 0,0 -0.26110380459971433,-0.5623943662228529 l 13.677410725209658 -6.207503317883157" fill="#ffbc11" stroke="none" /><path d="M 80.73074385275274 108.34839909993369 l -12.60903730528816 5.46286140399539 a34.74156746828436,34.74156746828436 0 0,0 -0.2330150328451968,-0.5507787061180817 l 12.701203319325662 -5.24500817221115" fill="#ffab0f" stroke="none" /><path d="M 80.58989483394504 108.01547362559985 l -10.017764196841906 4.136872212711709 a31.83832603347186,31.83832603347186 0 0,0 -0.20482260064490476,-0.5083528974214276 l 10.087489411744198 -3.963819947447476" fill="#ff850c" stroke="none" /><path d="M 80.20201598880116 107.00284435728193 l -1.968524707702398 0.6962967610089028 a23.088041834884134,23.088041834884134 0 0,0 -0.12930311501660485,-0.3758153776847464 l 1.9802186536622313 -0.6623086802348596" fill="#ff0a01" stroke="none" /><path d="M 79.67330655649465 105.27499134158121 l -6.699090972856929 1.7384847651931314 a27.920993363775306,27.920993363775306 0 0,0 -0.11672130052296319,-0.4662435747164843 l 6.728023587674952 -1.6229133510792553" fill="#ff4f07" stroke="none" /><path d="M 79.18660465613746 102.79330883721812 l -20.579739455125495 2.761950519745443 a41.764249245141784,41.764249245141784 0 0,0 -0.0894918182604687,-0.7133378433213264 l 20.624232782632813 -2.4072949221367077" fill="#faff18" stroke="none" /><path d="M 79.1416061653843 102.43462659150553 l -6.787180646829532 0.7922110693250004 a27.83325833779599,27.83325833779599 0 0,0 -0.0514487157333285,-0.47635121050166357 l 6.799811664063912 -0.6752635369385548" fill="#ff4e07" stroke="none" /><path d="M 79.10278846688536 102.07522291339032 l -13.597820856437352 1.3503480772417507 a34.66470533796734,34.66470533796734 0 0,0 -0.053854762218447906,-0.5942828134356242 l 13.619050214932875 -1.1160838752575604" fill="#ffaa0f" stroke="none" /><path d="M 79.0235259727143 100.99374915477108 l -1.436084164141861 0.06803371350398345 a22.437694791209932,22.437694791209932 0 0,0 -0.014956184324412335,-0.38595266110193127 l 1.437042481317474 -0.043303805388055415" fill="#ff0000" stroke="none" /><line stroke="#e1ed5e" stroke-width="0.3" x1="15.007084014347285" x2="10.007500721073583" y1="101.09737516637583" y2="101.16192664675087" /><path d="M 14.007167355692545 101.11028546245083 a86.0,86.0 0 0,1 10.666146001902534,-42.60595125391555" fill="none" id="id34" stroke="none" /><text fill="#e1ed5e" style="font-size:6.75px; font-family:Arial;" text-anchor="middle"><textPath startOffset="22.20632615414155" xlink:href="#id34">October</textPath></text><path d="M 79.01574976396665 99.18683210126434 l -62.95275070810006 -2.4395036962069616 a84.0,84.0 0 0,0 0.06842556706600478,-1.4443555735079636 l 62.90143153280056 3.522770376337934" fill="#4dd2ff" stroke="none" /><path d="M 79.91906864156998 93.8553929516997 l -1.4040940917712421 -0.42964174812302725 a22.46835699006649,22.46835699006649 0 0,0 0.11634812435276552,-0.368855349190349 l 1.3964904836502727 0.45374726373979074" fill="#ff0000" stroke="none" /><path d="M 80.02781315780177 93.51064311812611 l -6.833880983724117 -2.2204625333234733 a28.185567699326157,28.185567699326157 0 0,0 0.15389683185636457,-0.4601319388920385 l 6.794646858095979 2.337767575137834" fill="#ff5207" stroke="none" /><path d="M 80.95270993114464 91.15688171328213 l -26.05416531212633 -12.096212368475816 a49.725213380841474,49.725213380841474 0 0,0 0.3671184235319032,-0.7732450268288894 l 25.842088694752672 12.542899810945238" fill="#9dff22" stroke="none" /><path d="M 81.10775173730289 90.83032412892265 l -9.07436138509007 -4.404396527150931 a31.08676079401078,31.08676079401078 0 0,0 0.23779889767953558,-0.4793880670365143 l 8.997202474457122 4.559944182686407" fill="#ff7a0b" stroke="none" /><line stroke="#e1ed5e" stroke-width="0.3" x1="26.266209847984243" x2="21.928928074336255" y1="57.711370442889674" y2="55.22380399835377" /><path d="M 25.398753493254645 57.213857153982495 a86.0,86.0 0 0,1 29.58750427330803,-30.492523968695096" fill="none" id="id35" stroke="none" /><text fill="#e1ed5e" style="font-size:6.75px; font-family:Arial;" text-anchor="middle"><textPath startOffset="21.46611528233685" xlink:href="#id35">November</textPath></text><path d="M 83.84228863543731 86.58626213691792 l -5.2226207326888785 -4.335692344414046 a27.78778280610998,27.78778280610998 0 0,0 0.3086949906376398,-0.365397501502724 l 5.147215128564115 4.424948795545886" fill="#ff4d07" stroke="none" /><path d="M 84.07557802195018 86.31012108654704 l -5.181709130916793 -4.454602538463489 a27.83327105368372,27.83327105368372 0 0,0 0.3154545225723816,-0.360619051128298 l 5.104262744766568 4.54313714579473" fill="#ff4e07" stroke="none" /><path d="M 84.80347519578584 85.50635884689758 l -4.910839242289104 -4.683698586046053 a27.786263663352347,27.786263663352347 0 0,0 0.33308550201110904,-0.34327388886467547 l 4.829489476574876 4.767536670460852" fill="#ff4d07" stroke="none" /><path d="M 85.31137513191541 84.99185889309783 l -24.74428006138714 -25.282533258569817 a56.37634638748114,56.37634638748114 0 0,0 0.6993801379928012,-0.6728031386309103 l 24.30541667978191 25.70471948396304" fill="#56ff2a" stroke="none" /><line stroke="#e1ed5e" stroke-width="0.3" x1="56.762969772571076" x2="54.21961505331055" y1="26.818313649435495" y2="22.513508569990535" /><path d="M 56.25429882871897 25.957352633546506 a86.0,86.0 0 0,1 42.265352541879196,-11.944610805530505" fill="none" id="id36" stroke="none" /><text fill="#e1ed5e" style="font-size:6.75px; font-family:Arial;" text-anchor="middle"><textPath startOffset="22.20632615414155" xlink:href="#id36">December</textPath></text><path d="M 89.94658935756843 81.56283822128135 l -3.3744450527423826 -6.188465940923744 a28.048687120021057,28.048687120021057 0 0,0 0.4258791822188779,-0.2274899100112364 l 3.267420823995199 6.24563457743673" fill="#ff5107" stroke="none" /></svg>